<?xml version="1.0" encoding="UTF-8" standalone="no"?><!DOCTYPE svg PUBLIC "-//W3C//DTD SVG 1.1//EN" "http://www.w3.org/Graphics/SVG/1.1/DTD/svg11.dtd"><svg width="100%" height="100%" viewBox="0 0 56 56" version="1.1" xmlns="http://www.w3.org/2000/svg" xmlns:xlink="http://www.w3.org/1999/xlink" xml:space="preserve" xmlns:serif="http://www.serif.com/" style="fill-rule:evenodd;clip-rule:evenodd;stroke-linejoin:round;stroke-miterlimit:2;"><g><path d="M27.999,2.428c-14.101,0 -25.571,11.47 -25.571,25.571c0,14.1 11.47,25.572 25.571,25.572c14.1,0 25.571,-11.472 25.571,-25.572c0,-14.101 -11.471,-25.571 -25.571,-25.571m0,53.57c-15.439,0 -27.999,-12.56 -27.999,-27.999c0,-15.439 12.56,-27.999 27.999,-27.999c15.438,0 27.998,12.56 27.998,27.999c0,15.439 -12.56,27.999 -27.998,27.999" style="fill:#231f20;fill-rule:nonzero;"/><path d="M12.887,32.126c0,0 1.517,1.538 3.641,1.538c1.334,0 2.467,-0.748 2.467,-2.104c0,-3.094 -6.917,-2.427 -6.917,-6.815c0,-2.225 1.922,-3.984 4.612,-3.984c2.649,0 4.045,1.436 4.045,1.436l-0.91,1.658c0,0 -1.316,-1.234 -3.135,-1.234c-1.518,0 -2.589,0.951 -2.589,2.083c0,2.953 6.917,2.164 6.917,6.795c0,2.205 -1.699,4.025 -4.531,4.025c-3.033,0 -4.732,-1.881 -4.732,-1.881l1.132,-1.517Z" style="fill:#231f20;fill-rule:nonzero;"/><path d="M27.815,20.235l1.74,0l-5.138,15.896l-1.739,0l5.137,-15.896Z" style="fill:#231f20;fill-rule:nonzero;"/><path d="M36.655,33.542c3.217,0 5.32,-1.901 5.32,-5.42c0,-3.499 -2.124,-5.379 -5.32,-5.379l-2.588,0l0,10.799l2.588,0Zm-4.591,-12.539l4.734,0c4.368,0 7.24,2.609 7.24,7.119c0,4.53 -2.872,7.159 -7.24,7.159l-4.734,0l0,-14.278Z" style="fill:#231f20;fill-rule:nonzero;"/><path d="M41.082,7.691c1.604,0 2.905,-1.3 2.905,-2.906c0,-1.604 -1.301,-2.906 -2.905,-2.906c-1.604,0 -2.905,1.302 -2.905,2.906c0,1.606 1.301,2.906 2.905,2.906" style="fill:#231f20;fill-rule:nonzero;"/></g></svg>